M48
; DRILL file {KiCad (5.1.6)-1} date 11/10/20 08:59:06
; FORMAT={-:-/ absolute / inch / decimal}
; #@! TF.CreationDate,2020-11-10T08:59:06-03:00
; #@! TF.GenerationSoftware,Kicad,Pcbnew,(5.1.6)-1
; #@! TF.FileFunction,Plated,1,2,PTH
FMAT,2
INCH
T1C0.0157
T2C0.0197
T3C0.0315
T4C0.0354
T5C0.0394
T6C0.0433
T7C0.0512
T8C0.0531
T9C0.0551
T10C0.0987
T11C0.1181
T12C0.1260
%
G90
G05
T1
X2.252Y-3.7783
X3.1086Y-4.6691
X3.1197Y-4.1744
X3.1339Y-4.639
X3.1387Y-4.6944
X3.164Y-4.6643
X3.1689Y-4.7198
X3.1942Y-4.6896
X3.2528Y-1.9614
X3.4473Y-2.237
X3.4473Y-2.2763
X3.4473Y-2.3157
X3.4473Y-2.3551
X3.4473Y-2.3944
X3.4867Y-2.237
X3.4867Y-2.2763
X3.4867Y-2.3157
X3.4867Y-2.3551
X3.4867Y-2.3944
X3.513Y-2.5799
X3.5977Y-4.9936
X3.6059Y-4.9551
X3.6081Y-3.8639
X3.6306Y-3.8317
X3.6363Y-5.0018
X3.6403Y-3.8865
X3.6444Y-4.9633
X3.6532Y-3.7994
X3.6629Y-3.8542
X3.6701Y-2.0799
X3.6726Y-3.9091
X3.6748Y-5.01
X3.6758Y-3.7672
X3.683Y-4.9714
X3.6855Y-3.822
X3.6951Y-3.8768
X3.6984Y-3.7349
X3.7081Y-3.7897
X3.7177Y-3.8446
X3.7306Y-3.7575
X3.7403Y-3.8123
X3.7471Y-3.3864
X3.7629Y-3.7801
X3.7781Y-3.4097
X3.8076Y-3.4318
X3.8371Y-3.4538
X3.8522Y-2.5905
X3.8639Y-3.4739
X3.8994Y-2.559
X3.9487Y-2.5226
X3.9487Y-3.2832
X3.9784Y-3.3775
X4.0048Y-2.4862
X4.1874Y-2.1799
X4.1922Y-2.1299
X4.2409Y-3.4086
X4.2662Y-3.3784
X4.2711Y-3.4339
X4.2915Y-3.3483
X4.2964Y-3.4037
X4.3012Y-3.4592
X4.302Y-4.0822
X4.302Y-4.1216
X4.302Y-4.161
X4.3168Y-3.3181
X4.3217Y-3.3736
X4.3265Y-3.429
X4.3414Y-4.0822
X4.3414Y-4.1216
X4.3414Y-4.161
X4.3421Y-3.2879
X4.347Y-3.3434
X4.3518Y-3.3989
X4.3723Y-3.3132
X4.3772Y-3.3687
X4.3807Y-4.0822
X4.3807Y-4.1216
X4.3807Y-4.161
X4.4025Y-3.3386
X4.4201Y-4.0822
X4.4201Y-4.1216
X4.4201Y-4.161
X4.4542Y-4.5109
X4.4595Y-4.0822
X4.4595Y-4.1216
X4.4595Y-4.161
X4.4795Y-4.4807
X4.4844Y-4.5362
X4.5097Y-4.506
X4.5145Y-4.5615
X4.5399Y-4.5313
X4.5579Y-3.7879
X4.5681Y-3.826
X4.5959Y-3.7777
X4.6061Y-3.8158
X4.6339Y-3.7675
X4.6441Y-3.8056
X4.6719Y-3.7574
X4.6821Y-3.7954
X4.71Y-3.7472
X4.7202Y-3.7852
X4.8213Y-2.2444
X4.8213Y-2.2838
X4.8213Y-2.3232
X4.8607Y-2.2444
X4.8607Y-2.2838
X4.8607Y-2.3232
X4.9Y-2.2444
X4.9Y-2.2838
X4.9Y-2.3232
X4.9394Y-2.2444
X4.9394Y-2.2838
X4.9394Y-2.3232
X4.9788Y-2.2444
X4.9788Y-2.2838
X4.9788Y-2.3232
T2
X1.7559Y-3.937
X1.7836Y-3.8702
X1.7836Y-4.0038
X1.8504Y-3.8425
X1.8504Y-4.0315
X1.9172Y-3.8702
X1.9172Y-4.0038
X1.9449Y-3.937
X5.9291Y-3.937
X5.9568Y-3.8702
X5.9568Y-4.0038
X6.0236Y-3.8425
X6.0236Y-4.0315
X6.0904Y-3.8702
X6.0904Y-4.0038
X6.1181Y-3.937
X3.8425Y-6.0236
X3.8702Y-5.9568
X3.8702Y-6.0904
X3.937Y-5.9291
X3.937Y-6.1181
X4.0038Y-5.9568
X4.0038Y-6.0904
X4.0315Y-6.0236
T3
X3.3571Y-2.5913
X3.3571Y-2.6897
X2.8075Y-2.1377
X2.9059Y-2.1377
T4
X3.0561Y-1.9298
X3.1467Y-1.8876
T5
X4.5965Y-1.9637
X4.5965Y-2.0637
X4.5965Y-2.1637
X4.5965Y-2.2637
X4.7133Y-2.8214
X5.0473Y-3.1555
X5.169Y-4.5078
X5.2913Y-4.0515
X5.1671Y-3.359
X5.2894Y-3.8153
X2.5847Y-4.0587
X2.7069Y-4.515
X3.3662Y-5.169
X3.8225Y-5.2913
X2.8267Y-4.7185
X3.1607Y-5.0526
X4.0587Y-5.2894
X4.515Y-5.1671
X4.7185Y-5.0473
X5.0526Y-4.7133
T6
X3.4587Y-4.9341
X3.845Y-5.0376
X4.0213Y-5.0396
X4.4076Y-4.9361
X4.5613Y-4.8498
X4.8441Y-4.5669
X4.5669Y-3.0299
X4.8498Y-3.3127
X2.8344Y-4.0213
X2.9379Y-4.4076
X4.9361Y-3.4664
X5.0396Y-3.8527
X3.0242Y-4.5613
X3.3071Y-4.8441
X3.6071Y-2.8129
X3.6071Y-2.9901
X3.863Y-2.8129
X3.863Y-2.9901
X3.9989Y-2.8129
X3.9989Y-2.9901
X4.2548Y-2.8129
X4.2548Y-2.9901
X4.9341Y-4.4154
X5.0376Y-4.029
T7
X2.487Y-5.0582
X2.8211Y-5.395
X3.0494Y-4.8327
X4.183Y-5.7533
X4.2689Y-5.1535
X4.6417Y-5.6324
X4.8327Y-4.8246
X5.0582Y-5.387
X5.395Y-5.0529
X4.8246Y-3.0413
X5.0529Y-2.479
X5.387Y-2.8158
X5.1565Y-4.2579
X5.633Y-4.6321
X5.7576Y-4.1744
X5.1535Y-3.6051
X5.6324Y-3.2323
X5.7533Y-3.691
X2.1207Y-4.183
X2.2416Y-4.6417
X2.7205Y-4.2689
X3.2419Y-5.633
X3.6161Y-5.1565
X3.6996Y-5.7576
T8
X2.3628Y-3.384
X2.8217Y-2.7287
X3.8373Y-4.4164
X4.0667Y-4.0888
X4.2962Y-3.7611
T9
X2.2838Y-5.3117
X2.4252Y-5.4531
X2.5666Y-5.5946
X3.1926Y-5.9541
X3.3858Y-6.0059
X3.579Y-6.0577
X5.3117Y-5.5902
X5.4531Y-5.4488
X5.5946Y-5.3074
X5.3074Y-2.2795
X5.4488Y-2.4209
X5.5902Y-2.5623
X5.9526Y-3.1867
X6.0043Y-3.3799
X6.0561Y-3.5731
X1.8179Y-4.3009
X1.8697Y-4.4941
X1.9215Y-4.6873
X4.3009Y-6.0561
X4.4941Y-6.0043
X4.6873Y-5.9526
X5.9541Y-4.6814
X6.0059Y-4.4882
X6.0577Y-4.295
T10
X2.3052Y-2.9377
X2.5084Y-2.6475
T11
X2.0086Y-2.9151
X2.3022Y-2.4959
T12
X1.8504Y-3.937
X6.0236Y-3.937
X3.937Y-6.0236
T0
M30
