%TF.GenerationSoftware,KiCad,Pcbnew,(5.1.6)-1*%
%TF.CreationDate,2020-11-10T08:59:03-03:00*%
%TF.ProjectId,8rel,3872656c-2e6b-4696-9361-645f70636258,rev?*%
%TF.SameCoordinates,Original*%
%TF.FileFunction,Soldermask,Bot*%
%TF.FilePolarity,Negative*%
%FSLAX46Y46*%
G04 Gerber Fmt 4.6, Leading zero omitted, Abs format (unit mm)*
G04 Created by KiCad (PCBNEW (5.1.6)-1) date 2020-11-10 08:59:03*
%MOMM*%
%LPD*%
G01*
G04 APERTURE LIST*
%ADD10C,0.900000*%
%ADD11C,6.500000*%
%ADD12C,2.125000*%
%ADD13C,4.600000*%
%ADD14C,3.859000*%
%ADD15O,1.800000X1.800000*%
%ADD16R,1.800000X1.800000*%
%ADD17C,1.700000*%
%ADD18R,1.700000X1.700000*%
%ADD19C,2.100000*%
%ADD20C,0.100000*%
%ADD21C,2.600000*%
%ADD22C,3.100000*%
%ADD23C,1.900000*%
G04 APERTURE END LIST*
D10*
%TO.C,REF\u002A\u002A*%
X101697056Y-151302944D03*
X100000000Y-150600000D03*
X98302944Y-151302944D03*
X97600000Y-153000000D03*
X98302944Y-154697056D03*
X100000000Y-155400000D03*
X101697056Y-154697056D03*
X102400000Y-153000000D03*
D11*
X100000000Y-153000000D03*
%TD*%
D10*
%TO.C,REF\u002A\u002A*%
X154697056Y-98302944D03*
X153000000Y-97600000D03*
X151302944Y-98302944D03*
X150600000Y-100000000D03*
X151302944Y-101697056D03*
X153000000Y-102400000D03*
X154697056Y-101697056D03*
X155400000Y-100000000D03*
D11*
X153000000Y-100000000D03*
%TD*%
D10*
%TO.C,REF\u002A\u002A*%
X48697056Y-98302944D03*
X47000000Y-97600000D03*
X45302944Y-98302944D03*
X44600000Y-100000000D03*
X45302944Y-101697056D03*
X47000000Y-102400000D03*
X48697056Y-101697056D03*
X49400000Y-100000000D03*
D11*
X47000000Y-100000000D03*
%TD*%
D12*
%TO.C,PS1*%
X109122574Y-95532551D03*
X103295038Y-103855135D03*
X97467501Y-112177720D03*
X60015870Y-85953806D03*
X71670943Y-69308636D03*
%TD*%
D13*
%TO.C,J11*%
X58474679Y-63395148D03*
X51018185Y-74044125D03*
D14*
X63713131Y-67246268D03*
X58550943Y-74618636D03*
%TD*%
D15*
%TO.C,J10*%
X116750943Y-57498636D03*
X116750943Y-54958636D03*
X116750943Y-52418636D03*
D16*
X116750943Y-49878636D03*
%TD*%
D17*
%TO.C,C5*%
X85270943Y-68318636D03*
D18*
X85270943Y-65818636D03*
%TD*%
D17*
%TO.C,C3*%
X71310943Y-54298636D03*
D18*
X73810943Y-54298636D03*
%TD*%
D19*
%TO.C,SW2*%
X108070943Y-71448636D03*
X108070943Y-75948636D03*
X101570943Y-71448636D03*
X101570943Y-75948636D03*
%TD*%
%TO.C,SW1*%
X98120943Y-71448636D03*
X98120943Y-75948636D03*
X91620943Y-71448636D03*
X91620943Y-75948636D03*
%TD*%
%TO.C,D5*%
G36*
G01*
X122228125Y-116813676D02*
X122228125Y-116813676D01*
G75*
G02*
X122228125Y-115187330I813173J813173D01*
G01*
X122228125Y-115187330D01*
G75*
G02*
X123854471Y-115187330I813173J-813173D01*
G01*
X123854471Y-115187330D01*
G75*
G02*
X123854471Y-116813676I-813173J-813173D01*
G01*
X123854471Y-116813676D01*
G75*
G02*
X122228125Y-116813676I-813173J813173D01*
G01*
G37*
D20*
G36*
X115857093Y-124811054D02*
G01*
X114230747Y-123184708D01*
X115857093Y-121558362D01*
X117483439Y-123184708D01*
X115857093Y-124811054D01*
G37*
%TD*%
%TO.C,D8*%
G36*
X124811054Y-84142907D02*
G01*
X123184708Y-85769253D01*
X121558362Y-84142907D01*
X123184708Y-82516561D01*
X124811054Y-84142907D01*
G37*
G36*
G01*
X116813676Y-77771875D02*
X116813676Y-77771875D01*
G75*
G02*
X115187330Y-77771875I-813173J813173D01*
G01*
X115187330Y-77771875D01*
G75*
G02*
X115187330Y-76145529I813173J813173D01*
G01*
X115187330Y-76145529D01*
G75*
G02*
X116813676Y-76145529I813173J-813173D01*
G01*
X116813676Y-76145529D01*
G75*
G02*
X116813676Y-77771875I-813173J-813173D01*
G01*
G37*
%TD*%
%TO.C,D7*%
G36*
X129415550Y-98672881D02*
G01*
X127193920Y-99268165D01*
X126598636Y-97046535D01*
X128820266Y-96451251D01*
X129415550Y-98672881D01*
G37*
G36*
G01*
X125675134Y-89156717D02*
X125675134Y-89156717D01*
G75*
G02*
X124266677Y-88343544I-297642J1110815D01*
G01*
X124266677Y-88343544D01*
G75*
G02*
X125079850Y-86935087I1110815J297642D01*
G01*
X125079850Y-86935087D01*
G75*
G02*
X126488307Y-87748260I297642J-1110815D01*
G01*
X126488307Y-87748260D01*
G75*
G02*
X125675134Y-89156717I-1110815J-297642D01*
G01*
G37*
%TD*%
%TO.C,D6*%
G36*
X126138173Y-113558457D02*
G01*
X123916543Y-112963173D01*
X124511827Y-110741543D01*
X126733457Y-111336827D01*
X126138173Y-113558457D01*
G37*
G36*
G01*
X127656959Y-103447009D02*
X127656959Y-103447009D01*
G75*
G02*
X126843786Y-102038552I297642J1110815D01*
G01*
X126843786Y-102038552D01*
G75*
G02*
X128252243Y-101225379I1110815J-297642D01*
G01*
X128252243Y-101225379D01*
G75*
G02*
X129065416Y-102633836I-297642J-1110815D01*
G01*
X129065416Y-102633836D01*
G75*
G02*
X127656959Y-103447009I-1110815J297642D01*
G01*
G37*
%TD*%
%TO.C,D4*%
G36*
X101327118Y-129415550D02*
G01*
X100731834Y-127193920D01*
X102953464Y-126598636D01*
X103548748Y-128820266D01*
X101327118Y-129415550D01*
G37*
G36*
G01*
X110843282Y-125675134D02*
X110843282Y-125675134D01*
G75*
G02*
X111656455Y-124266677I1110815J297642D01*
G01*
X111656455Y-124266677D01*
G75*
G02*
X113064912Y-125079850I297642J-1110815D01*
G01*
X113064912Y-125079850D01*
G75*
G02*
X112251739Y-126488307I-1110815J-297642D01*
G01*
X112251739Y-126488307D01*
G75*
G02*
X110843282Y-125675134I-297642J1110815D01*
G01*
G37*
%TD*%
%TO.C,D3*%
G36*
X86441542Y-126138173D02*
G01*
X87036826Y-123916543D01*
X89258456Y-124511827D01*
X88663172Y-126733457D01*
X86441542Y-126138173D01*
G37*
G36*
G01*
X96552990Y-127656959D02*
X96552990Y-127656959D01*
G75*
G02*
X97961447Y-126843786I1110815J-297642D01*
G01*
X97961447Y-126843786D01*
G75*
G02*
X98774620Y-128252243I-297642J-1110815D01*
G01*
X98774620Y-128252243D01*
G75*
G02*
X97366163Y-129065416I-1110815J297642D01*
G01*
X97366163Y-129065416D01*
G75*
G02*
X96552990Y-127656959I297642J1110815D01*
G01*
G37*
%TD*%
%TO.C,D2*%
G36*
X75188945Y-115857093D02*
G01*
X76815291Y-114230747D01*
X78441637Y-115857093D01*
X76815291Y-117483439D01*
X75188945Y-115857093D01*
G37*
G36*
G01*
X83186323Y-122228125D02*
X83186323Y-122228125D01*
G75*
G02*
X84812669Y-122228125I813173J-813173D01*
G01*
X84812669Y-122228125D01*
G75*
G02*
X84812669Y-123854471I-813173J-813173D01*
G01*
X84812669Y-123854471D01*
G75*
G02*
X83186323Y-123854471I-813173J813173D01*
G01*
X83186323Y-123854471D01*
G75*
G02*
X83186323Y-122228125I813173J813173D01*
G01*
G37*
%TD*%
%TO.C,D1*%
G36*
G01*
X74324866Y-110843282D02*
X74324866Y-110843282D01*
G75*
G02*
X75733323Y-111656455I297642J-1110815D01*
G01*
X75733323Y-111656455D01*
G75*
G02*
X74920150Y-113064912I-1110815J-297642D01*
G01*
X74920150Y-113064912D01*
G75*
G02*
X73511693Y-112251739I-297642J1110815D01*
G01*
X73511693Y-112251739D01*
G75*
G02*
X74324866Y-110843282I1110815J297642D01*
G01*
G37*
G36*
X70584450Y-101327118D02*
G01*
X72806080Y-100731834D01*
X73401364Y-102953464D01*
X71179734Y-103548748D01*
X70584450Y-101327118D01*
G37*
%TD*%
D21*
%TO.C,K7*%
X134349548Y-96909761D03*
D22*
X146133843Y-93752169D03*
X143063369Y-82099822D03*
D21*
X131243719Y-85318651D03*
D22*
X130900137Y-91570607D03*
%TD*%
D21*
%TO.C,K8*%
X128202461Y-80149001D03*
D22*
X136829164Y-71522298D03*
X128343883Y-62966306D03*
D21*
X119717180Y-71663719D03*
D22*
X122545607Y-77249863D03*
%TD*%
%TO.C,J8*%
G36*
G01*
X143885076Y-64730342D02*
X141639331Y-66976088D01*
G75*
G02*
X141268781Y-66976088I-185275J185275D01*
G01*
X140097837Y-65805144D01*
G75*
G02*
X140097837Y-65434594I185275J185275D01*
G01*
X142343583Y-63188848D01*
G75*
G02*
X142714133Y-63188848I185275J-185275D01*
G01*
X143885077Y-64359792D01*
G75*
G02*
X143885077Y-64730342I-185275J-185275D01*
G01*
G37*
G36*
G01*
X139707503Y-61723711D02*
X138632700Y-62798513D01*
G75*
G02*
X137091208Y-62798513I-770746J770746D01*
G01*
X137091208Y-62798513D01*
G75*
G02*
X137091208Y-61257021I770746J770746D01*
G01*
X138166010Y-60182219D01*
G75*
G02*
X139707502Y-60182219I770746J-770746D01*
G01*
X139707502Y-60182219D01*
G75*
G02*
X139707502Y-61723711I-770746J-770746D01*
G01*
G37*
G36*
G01*
X136115400Y-58131608D02*
X135040597Y-59206410D01*
G75*
G02*
X133499105Y-59206410I-770746J770746D01*
G01*
X133499105Y-59206410D01*
G75*
G02*
X133499105Y-57664918I770746J770746D01*
G01*
X134573907Y-56590116D01*
G75*
G02*
X136115399Y-56590116I770746J-770746D01*
G01*
X136115399Y-56590116D01*
G75*
G02*
X136115399Y-58131608I-770746J-770746D01*
G01*
G37*
%TD*%
%TO.C,J7*%
G36*
G01*
X155640421Y-91398117D02*
X152572675Y-92220117D01*
G75*
G02*
X152251770Y-92034842I-67815J253090D01*
G01*
X151823175Y-90435304D01*
G75*
G02*
X152008450Y-90114399I253090J67815D01*
G01*
X155076195Y-89292399D01*
G75*
G02*
X155397100Y-89477674I67815J-253090D01*
G01*
X155825695Y-91077212D01*
G75*
G02*
X155640420Y-91398117I-253090J-67815D01*
G01*
G37*
G36*
G01*
X153525850Y-86705512D02*
X152057643Y-87098916D01*
G75*
G02*
X150722671Y-86328170I-282113J1052859D01*
G01*
X150722671Y-86328170D01*
G75*
G02*
X151493417Y-84993198I1052859J282113D01*
G01*
X152961625Y-84599794D01*
G75*
G02*
X154296597Y-85370540I282113J-1052859D01*
G01*
X154296597Y-85370540D01*
G75*
G02*
X153525851Y-86705512I-1052859J-282113D01*
G01*
G37*
G36*
G01*
X152211050Y-81798609D02*
X150742843Y-82192013D01*
G75*
G02*
X149407871Y-81421267I-282113J1052859D01*
G01*
X149407871Y-81421267D01*
G75*
G02*
X150178617Y-80086295I1052859J282113D01*
G01*
X151646825Y-79692891D01*
G75*
G02*
X152981797Y-80463637I282113J-1052859D01*
G01*
X152981797Y-80463637D01*
G75*
G02*
X152211051Y-81798609I-1052859J-282113D01*
G01*
G37*
%TD*%
%TO.C,J6*%
G36*
G01*
X152486959Y-120370762D02*
X149419214Y-119548762D01*
G75*
G02*
X149233939Y-119227857I67815J253090D01*
G01*
X149662534Y-117628319D01*
G75*
G02*
X149983439Y-117443044I253090J-67815D01*
G01*
X153051184Y-118265044D01*
G75*
G02*
X153236459Y-118585949I-67815J-253090D01*
G01*
X152807864Y-120185487D01*
G75*
G02*
X152486959Y-120370762I-253090J67815D01*
G01*
G37*
G36*
G01*
X153001991Y-115249562D02*
X151533783Y-114856157D01*
G75*
G02*
X150763037Y-113521185I282113J1052859D01*
G01*
X150763037Y-113521185D01*
G75*
G02*
X152098009Y-112750439I1052859J-282113D01*
G01*
X153566217Y-113143843D01*
G75*
G02*
X154336963Y-114478815I-282113J-1052859D01*
G01*
X154336963Y-114478815D01*
G75*
G02*
X153001991Y-115249561I-1052859J282113D01*
G01*
G37*
G36*
G01*
X154316791Y-110342659D02*
X152848583Y-109949254D01*
G75*
G02*
X152077837Y-108614282I282113J1052859D01*
G01*
X152077837Y-108614282D01*
G75*
G02*
X153412809Y-107843536I1052859J-282113D01*
G01*
X154881017Y-108236940D01*
G75*
G02*
X155651763Y-109571912I-282113J-1052859D01*
G01*
X155651763Y-109571912D01*
G75*
G02*
X154316791Y-110342658I-1052859J282113D01*
G01*
G37*
%TD*%
%TO.C,J5*%
G36*
G01*
X135269658Y-143885076D02*
X133023912Y-141639331D01*
G75*
G02*
X133023912Y-141268781I185275J185275D01*
G01*
X134194856Y-140097837D01*
G75*
G02*
X134565406Y-140097837I185275J-185275D01*
G01*
X136811152Y-142343583D01*
G75*
G02*
X136811152Y-142714133I-185275J-185275D01*
G01*
X135640208Y-143885077D01*
G75*
G02*
X135269658Y-143885077I-185275J185275D01*
G01*
G37*
G36*
G01*
X138276289Y-139707503D02*
X137201487Y-138632700D01*
G75*
G02*
X137201487Y-137091208I770746J770746D01*
G01*
X137201487Y-137091208D01*
G75*
G02*
X138742979Y-137091208I770746J-770746D01*
G01*
X139817781Y-138166010D01*
G75*
G02*
X139817781Y-139707502I-770746J-770746D01*
G01*
X139817781Y-139707502D01*
G75*
G02*
X138276289Y-139707502I-770746J770746D01*
G01*
G37*
G36*
G01*
X141868392Y-136115400D02*
X140793590Y-135040597D01*
G75*
G02*
X140793590Y-133499105I770746J770746D01*
G01*
X140793590Y-133499105D01*
G75*
G02*
X142335082Y-133499105I770746J-770746D01*
G01*
X143409884Y-134573907D01*
G75*
G02*
X143409884Y-136115399I-770746J-770746D01*
G01*
X143409884Y-136115399D01*
G75*
G02*
X141868392Y-136115399I-770746J770746D01*
G01*
G37*
%TD*%
%TO.C,J4*%
G36*
G01*
X108601882Y-155640421D02*
X107779882Y-152572675D01*
G75*
G02*
X107965157Y-152251770I253090J67815D01*
G01*
X109564695Y-151823175D01*
G75*
G02*
X109885600Y-152008450I67815J-253090D01*
G01*
X110707600Y-155076195D01*
G75*
G02*
X110522325Y-155397100I-253090J-67815D01*
G01*
X108922787Y-155825695D01*
G75*
G02*
X108601882Y-155640420I-67815J253090D01*
G01*
G37*
G36*
G01*
X113294487Y-153525850D02*
X112901083Y-152057643D01*
G75*
G02*
X113671829Y-150722671I1052859J282113D01*
G01*
X113671829Y-150722671D01*
G75*
G02*
X115006801Y-151493417I282113J-1052859D01*
G01*
X115400205Y-152961625D01*
G75*
G02*
X114629459Y-154296597I-1052859J-282113D01*
G01*
X114629459Y-154296597D01*
G75*
G02*
X113294487Y-153525851I-282113J1052859D01*
G01*
G37*
G36*
G01*
X118201390Y-152211050D02*
X117807986Y-150742843D01*
G75*
G02*
X118578732Y-149407871I1052859J282113D01*
G01*
X118578732Y-149407871D01*
G75*
G02*
X119913704Y-150178617I282113J-1052859D01*
G01*
X120307108Y-151646825D01*
G75*
G02*
X119536362Y-152981797I-1052859J-282113D01*
G01*
X119536362Y-152981797D01*
G75*
G02*
X118201390Y-152211051I-282113J1052859D01*
G01*
G37*
%TD*%
%TO.C,J3*%
G36*
G01*
X79629238Y-152486958D02*
X80451238Y-149419213D01*
G75*
G02*
X80772143Y-149233938I253090J-67815D01*
G01*
X82371681Y-149662533D01*
G75*
G02*
X82556956Y-149983438I-67815J-253090D01*
G01*
X81734956Y-153051183D01*
G75*
G02*
X81414051Y-153236458I-253090J67815D01*
G01*
X79814513Y-152807863D01*
G75*
G02*
X79629238Y-152486958I67815J253090D01*
G01*
G37*
G36*
G01*
X84750438Y-153001990D02*
X85143843Y-151533782D01*
G75*
G02*
X86478815Y-150763036I1052859J-282113D01*
G01*
X86478815Y-150763036D01*
G75*
G02*
X87249561Y-152098008I-282113J-1052859D01*
G01*
X86856157Y-153566216D01*
G75*
G02*
X85521185Y-154336962I-1052859J282113D01*
G01*
X85521185Y-154336962D01*
G75*
G02*
X84750439Y-153001990I282113J1052859D01*
G01*
G37*
G36*
G01*
X89657341Y-154316790D02*
X90050746Y-152848582D01*
G75*
G02*
X91385718Y-152077836I1052859J-282113D01*
G01*
X91385718Y-152077836D01*
G75*
G02*
X92156464Y-153412808I-282113J-1052859D01*
G01*
X91763060Y-154881016D01*
G75*
G02*
X90428088Y-155651762I-1052859J282113D01*
G01*
X90428088Y-155651762D01*
G75*
G02*
X89657342Y-154316790I282113J1052859D01*
G01*
G37*
%TD*%
%TO.C,J2*%
G36*
G01*
X56114923Y-135269658D02*
X58360668Y-133023912D01*
G75*
G02*
X58731218Y-133023912I185275J-185275D01*
G01*
X59902162Y-134194856D01*
G75*
G02*
X59902162Y-134565406I-185275J-185275D01*
G01*
X57656416Y-136811152D01*
G75*
G02*
X57285866Y-136811152I-185275J185275D01*
G01*
X56114922Y-135640208D01*
G75*
G02*
X56114922Y-135269658I185275J185275D01*
G01*
G37*
G36*
G01*
X60292496Y-138276289D02*
X61367299Y-137201487D01*
G75*
G02*
X62908791Y-137201487I770746J-770746D01*
G01*
X62908791Y-137201487D01*
G75*
G02*
X62908791Y-138742979I-770746J-770746D01*
G01*
X61833989Y-139817781D01*
G75*
G02*
X60292497Y-139817781I-770746J770746D01*
G01*
X60292497Y-139817781D01*
G75*
G02*
X60292497Y-138276289I770746J770746D01*
G01*
G37*
G36*
G01*
X63884599Y-141868392D02*
X64959402Y-140793590D01*
G75*
G02*
X66500894Y-140793590I770746J-770746D01*
G01*
X66500894Y-140793590D01*
G75*
G02*
X66500894Y-142335082I-770746J-770746D01*
G01*
X65426092Y-143409884D01*
G75*
G02*
X63884600Y-143409884I-770746J770746D01*
G01*
X63884600Y-143409884D01*
G75*
G02*
X63884600Y-141868392I770746J770746D01*
G01*
G37*
%TD*%
D21*
%TO.C,K6*%
X131292700Y-114498548D03*
D22*
X143076995Y-117656141D03*
X146244061Y-106029675D03*
D21*
X134398529Y-102907438D03*
D22*
X130975000Y-108150000D03*
%TD*%
D21*
%TO.C,K5*%
X119850999Y-128202461D03*
D22*
X128477702Y-136829164D03*
X137033694Y-128343883D03*
D21*
X128336281Y-119717180D03*
D22*
X122750137Y-122545607D03*
%TD*%
D21*
%TO.C,K4*%
X103090239Y-134349548D03*
D22*
X106247831Y-146133843D03*
X117900178Y-143063369D03*
D21*
X114681349Y-131243719D03*
D22*
X108429393Y-130900137D03*
%TD*%
D21*
%TO.C,K3*%
X85501452Y-131292700D03*
D22*
X82343859Y-143076995D03*
X93970325Y-146244061D03*
D21*
X97092562Y-134398529D03*
D22*
X91850000Y-130975000D03*
%TD*%
D21*
%TO.C,K2*%
X71797539Y-119850999D03*
D22*
X63170836Y-128477702D03*
X71656117Y-137033694D03*
D21*
X80282820Y-128336281D03*
D22*
X77454393Y-122750137D03*
%TD*%
%TO.C,K1*%
X69099863Y-108429393D03*
D21*
X68756281Y-114681349D03*
D22*
X56936631Y-117900178D03*
X53866157Y-106247831D03*
D21*
X65650452Y-103090239D03*
%TD*%
%TO.C,J1*%
G36*
G01*
X47788949Y-118201390D02*
X49257156Y-117807986D01*
G75*
G02*
X50592128Y-118578732I282113J-1052859D01*
G01*
X50592128Y-118578732D01*
G75*
G02*
X49821382Y-119913704I-1052859J-282113D01*
G01*
X48353174Y-120307108D01*
G75*
G02*
X47018202Y-119536362I-282113J1052859D01*
G01*
X47018202Y-119536362D01*
G75*
G02*
X47788948Y-118201390I1052859J282113D01*
G01*
G37*
G36*
G01*
X46474149Y-113294487D02*
X47942356Y-112901083D01*
G75*
G02*
X49277328Y-113671829I282113J-1052859D01*
G01*
X49277328Y-113671829D01*
G75*
G02*
X48506582Y-115006801I-1052859J-282113D01*
G01*
X47038374Y-115400205D01*
G75*
G02*
X45703402Y-114629459I-282113J1052859D01*
G01*
X45703402Y-114629459D01*
G75*
G02*
X46474148Y-113294487I1052859J282113D01*
G01*
G37*
G36*
G01*
X44359578Y-108601882D02*
X47427324Y-107779882D01*
G75*
G02*
X47748229Y-107965157I67815J-253090D01*
G01*
X48176824Y-109564695D01*
G75*
G02*
X47991549Y-109885600I-253090J-67815D01*
G01*
X44923804Y-110707600D01*
G75*
G02*
X44602899Y-110522325I-67815J253090D01*
G01*
X44174304Y-108922787D01*
G75*
G02*
X44359579Y-108601882I253090J67815D01*
G01*
G37*
%TD*%
D23*
%TO.C,D0*%
X79926146Y-47943917D03*
D20*
G36*
X77164619Y-50279847D02*
G01*
X76361644Y-48557862D01*
X78083629Y-47754887D01*
X78886604Y-49476872D01*
X77164619Y-50279847D01*
G37*
%TD*%
M02*
