%TF.GenerationSoftware,KiCad,Pcbnew,(5.1.6)-1*%
%TF.CreationDate,2020-11-10T08:59:03-03:00*%
%TF.ProjectId,8rel,3872656c-2e6b-4696-9361-645f70636258,rev?*%
%TF.SameCoordinates,Original*%
%TF.FileFunction,Legend,Bot*%
%TF.FilePolarity,Positive*%
%FSLAX46Y46*%
G04 Gerber Fmt 4.6, Leading zero omitted, Abs format (unit mm)*
G04 Created by KiCad (PCBNEW (5.1.6)-1) date 2020-11-10 08:59:03*
%MOMM*%
%LPD*%
G01*
G04 APERTURE LIST*
%ADD10C,0.300000*%
G04 APERTURE END LIST*
D10*
X104898085Y-50760064D02*
X105040943Y-50688636D01*
X105112371Y-50617207D01*
X105183800Y-50474350D01*
X105183800Y-50402921D01*
X105112371Y-50260064D01*
X105040943Y-50188636D01*
X104898085Y-50117207D01*
X104612371Y-50117207D01*
X104469514Y-50188636D01*
X104398085Y-50260064D01*
X104326657Y-50402921D01*
X104326657Y-50474350D01*
X104398085Y-50617207D01*
X104469514Y-50688636D01*
X104612371Y-50760064D01*
X104898085Y-50760064D01*
X105040943Y-50831493D01*
X105112371Y-50902921D01*
X105183800Y-51045778D01*
X105183800Y-51331493D01*
X105112371Y-51474350D01*
X105040943Y-51545778D01*
X104898085Y-51617207D01*
X104612371Y-51617207D01*
X104469514Y-51545778D01*
X104398085Y-51474350D01*
X104326657Y-51331493D01*
X104326657Y-51045778D01*
X104398085Y-50902921D01*
X104469514Y-50831493D01*
X104612371Y-50760064D01*
X102826657Y-51617207D02*
X103326657Y-50902921D01*
X103683800Y-51617207D02*
X103683800Y-50117207D01*
X103112371Y-50117207D01*
X102969514Y-50188636D01*
X102898085Y-50260064D01*
X102826657Y-50402921D01*
X102826657Y-50617207D01*
X102898085Y-50760064D01*
X102969514Y-50831493D01*
X103112371Y-50902921D01*
X103683800Y-50902921D01*
X102183800Y-50831493D02*
X101683800Y-50831493D01*
X101469514Y-51617207D02*
X102183800Y-51617207D01*
X102183800Y-50117207D01*
X101469514Y-50117207D01*
X100112371Y-51617207D02*
X100826657Y-51617207D01*
X100826657Y-50117207D01*
X98612371Y-50617207D02*
X98255228Y-51617207D01*
X97898085Y-50617207D01*
X96540943Y-51617207D02*
X97398085Y-51617207D01*
X96969514Y-51617207D02*
X96969514Y-50117207D01*
X97112371Y-50331493D01*
X97255228Y-50474350D01*
X97398085Y-50545778D01*
X95898085Y-51474350D02*
X95826657Y-51545778D01*
X95898085Y-51617207D01*
X95969514Y-51545778D01*
X95898085Y-51474350D01*
X95898085Y-51617207D01*
X94898085Y-50117207D02*
X94755228Y-50117207D01*
X94612371Y-50188636D01*
X94540943Y-50260064D01*
X94469514Y-50402921D01*
X94398085Y-50688636D01*
X94398085Y-51045778D01*
X94469514Y-51331493D01*
X94540943Y-51474350D01*
X94612371Y-51545778D01*
X94755228Y-51617207D01*
X94898085Y-51617207D01*
X95040943Y-51545778D01*
X95112371Y-51474350D01*
X95183800Y-51331493D01*
X95255228Y-51045778D01*
X95255228Y-50688636D01*
X95183800Y-50402921D01*
X95112371Y-50260064D01*
X95040943Y-50188636D01*
X94898085Y-50117207D01*
M02*
